<svg xmlns="http://www.w3.org/2000/svg" viewBox="0 0 64 64">
  <defs>
    <style>
      .cls-1 {
        fill: #f26457; /* Cambia el color del relleno aquí */
      }
    </style>
  </defs>
  <g id="Layer_61" data-name="Layer 61">
    <path class="cls-1" d="M32,3.25h0A28.75,28.75,0,0,0,3.25,32h0A28.75,28.75,0,0,0,32,60.75h0A28.75,28.75,0,0,0,60.75,32h0A28.75,28.75,0,0,0,32,3.25ZM25.54,43a.75.75,0,0,1-.05,1.06.74.74,0,0,1-1.06,0L14,32.51a.74.74,0,0,1,0-1L24.43,20a.75.75,0,1,1,1.11,1l-10,11Zm4.53,4.47a.75.75,0,0,1-.74.61h-.14a.75.75,0,0,1-.6-.87l5.63-30.65a.75.75,0,0,1,1.47.27Zm20-15L39.57,44a.74.74,0,0,1-1.06,0,.75.75,0,0,1,0-1.06l10-11-10-11a.75.75,0,0,1,1.11-1L50.05,31.49A.74.74,0,0,1,50.05,32.51Z"/>
  </g>
</svg>
