<svg xmlns="http://www.w3.org/2000/svg" xml:space="preserve" width="1.70666in" height="1.70666in" version="1.1" style="shape-rendering:geometricPrecision; text-rendering:geometricPrecision; image-rendering:optimizeQuality; fill-rule:evenodd; clip-rule:evenodd"
viewBox="0 0 1707 1707"
 xmlns:xlink="http://www.w3.org/1999/xlink">
 <defs>
  <style type="text/css">
   <![CDATA[
    .fil0 {fill:black}
   ]]>
  </style>
 </defs>
 <g id="Layer_x0020_1">
  <metadata id="CorelCorpID_0Corel-Layer"/>
  <path class="fil0" d="M597 337l-154 0c-14,0 -26,-12 -26,-26l0 -154c0,-14 12,-26 26,-26 15,0 27,12 27,26l0 127 127 0c14,0 26,12 26,26 0,15 -12,27 -26,27z"/>
  <path class="fil0" d="M1570 1601c-7,0 -14,-3 -19,-8 -10,-10 -10,-27 0,-38l91 -91 -91 -91c-10,-10 -10,-27 0,-37 10,-11 27,-11 38,0l110 110c10,10 10,27 0,37l-110 110c-5,5 -12,8 -19,8z"/>
  <path class="fil0" d="M1003 1304l-173 0c-31,0 -60,-29 -60,-60l0 -109c-30,-13 -57,-30 -79,-46l-98 56c-32,13 -64,2 -77,-26l-85 -147c-30,-48 22,-80 22,-81l93 -54c-4,-22 -4,-70 0,-94l-93 -53c-28,-17 -41,-51 -22,-81l85 -147c16,-32 53,-40 81,-24l94 56c22,-16 47,-32 79,-47l0 -110c0,-30 27,-56 60,-56l173 -1c32,0 57,26 57,57l0 109c29,14 56,30 82,49l96 -59c24,-12 60,-6 78,24 0,0 0,0 0,0l88 152c12,24 6,60 -24,78 0,0 0,0 0,0l-94 54c5,34 5,58 0,92l94 54c35,21 34,65 23,80l-87 150c-21,35 -65,34 -79,23l-96 -55c-25,17 -51,34 -81,47l0 109c0,33 -26,60 -57,60zm-86 -325c-104,0 -189,-85 -189,-188 0,-104 85,-189 189,-189 104,0 188,85 188,189 0,103 -84,188 -188,188z"/>
  <path class="fil0" d="M917 1491c-15,0 -27,-12 -27,-27 0,-15 12,-27 27,-27 356,0 646,-290 646,-646 0,-357 -290,-647 -646,-647 -174,0 -335,66 -455,186 -10,10 -27,10 -37,0 -11,-11 -11,-28 0,-38 129,-130 304,-201 492,-201 187,0 363,72 495,204 132,132 205,308 205,496 0,187 -73,363 -205,495 -131,132 -308,205 -495,205z"/>
  <path class="fil0" d="M1680 1491l-1400 0c-15,0 -27,-12 -27,-27 0,-15 12,-27 27,-27l1400 0c15,0 27,12 27,27 0,15 -12,27 -27,27z"/>
  <path class="fil0" d="M279 1616l-252 0c-15,0 -27,-12 -27,-26l0 -253c0,-14 12,-26 27,-26l252 0c15,0 27,12 27,26l0 253c0,14 -12,26 -27,26z"/>
 </g>
</svg>
