<svg xmlns="http://www.w3.org/2000/svg" version="1.1" xmlns:xlink="http://www.w3.org/1999/xlink" xmlns:svgjs="http://svgjs.dev/svgjs" width="1200" height="560" preserveAspectRatio="none" viewBox="0 0 1200 560">
    <g mask="url(&quot;#SvgjsMask1018&quot;)" fill="none">
        <rect width="1200" height="560" x="0" y="0" fill="rgba(11, 14, 23, 1)"></rect>
        <path d="M-92.98 399.51L-92.98 399.51" stroke="rgba(20, 25, 41, 1)" stroke-width="1.5"></path>
        <path d="M-92.98 399.51L-97.83 519.51" stroke="rgba(20, 25, 41, 1)" stroke-width="1.5"></path>
        <path d="M-92.98 399.51L-65.37 678.42" stroke="rgba(20, 25, 41, 1)" stroke-width="1.5"></path>
        <path d="M-92.98 399.51L207.1 353.41" stroke="rgba(20, 25, 41, 1)" stroke-width="1.5"></path>
        <path d="M-92.98 399.51L63.63 692.66" stroke="rgba(20, 25, 41, 1)" stroke-width="1.5"></path>
        <path d="M-92.98 399.51L255.1 543.92" stroke="rgba(20, 25, 41, 1)" stroke-width="1.5"></path>
        <path d="M-97.83 519.51L-97.83 519.51" stroke="rgba(20, 25, 41, 1)" stroke-width="1.5"></path>
        <path d="M-97.83 519.51L-65.37 678.42" stroke="rgba(20, 25, 41, 1)" stroke-width="1.5"></path>
        <path d="M-97.83 519.51L63.63 692.66" stroke="rgba(20, 25, 41, 1)" stroke-width="1.5"></path>
        <path d="M-97.83 519.51L207.1 353.41" stroke="rgba(20, 25, 41, 1)" stroke-width="1.5"></path>
        <path d="M-97.83 519.51L255.1 543.92" stroke="rgba(20, 25, 41, 1)" stroke-width="1.5"></path>
        <path d="M-65.37 678.42L-65.37 678.42" stroke="rgba(20, 25, 41, 1)" stroke-width="1.5"></path>
        <path d="M-65.37 678.42L63.63 692.66" stroke="rgba(20, 25, 41, 1)" stroke-width="1.5"></path>
        <path d="M-65.37 678.42L208.61 709.04" stroke="rgba(20, 25, 41, 1)" stroke-width="1.5"></path>
        <path d="M-65.37 678.42L255.1 543.92" stroke="rgba(20, 25, 41, 1)" stroke-width="1.5"></path>
        <path d="M63.63 692.66L63.63 692.66" stroke="rgba(20, 25, 41, 1)" stroke-width="1.5"></path>
        <path d="M63.63 692.66L208.61 709.04" stroke="rgba(20, 25, 41, 1)" stroke-width="1.5"></path>
        <path d="M207.1 353.41L207.1 353.41" stroke="rgba(20, 25, 41, 1)" stroke-width="1.5"></path>
        <path d="M207.1 353.41L255.1 543.92" stroke="rgba(20, 25, 41, 1)" stroke-width="1.5"></path>
        <path d="M207.1 353.41L341.59 557.95" stroke="rgba(20, 25, 41, 1)" stroke-width="1.5"></path>
        <path d="M255.1 543.92L255.1 543.92" stroke="rgba(20, 25, 41, 1)" stroke-width="1.5"></path>
        <path d="M255.1 543.92L341.59 557.95" stroke="rgba(20, 25, 41, 1)" stroke-width="1.5"></path>
        <path d="M255.1 543.92L208.61 709.04" stroke="rgba(20, 25, 41, 1)" stroke-width="1.5"></path>
        <path d="M255.1 543.92L365.45 686.9" stroke="rgba(20, 25, 41, 1)" stroke-width="1.5"></path>
        <path d="M208.61 709.04L208.61 709.04" stroke="rgba(20, 25, 41, 1)" stroke-width="1.5"></path>
        <path d="M208.61 709.04L365.45 686.9" stroke="rgba(20, 25, 41, 1)" stroke-width="1.5"></path>
        <path d="M208.61 709.04L341.59 557.95" stroke="rgba(20, 25, 41, 1)" stroke-width="1.5"></path>
        <path d="M341.59 557.95L341.59 557.95" stroke="rgba(20, 25, 41, 1)" stroke-width="1.5"></path>
        <path d="M341.59 557.95L365.45 686.9" stroke="rgba(20, 25, 41, 1)" stroke-width="1.5"></path>
        <path d="M341.59 557.95L493.13 488.99" stroke="rgba(20, 25, 41, 1)" stroke-width="1.5"></path>
        <path d="M365.45 686.9L365.45 686.9" stroke="rgba(20, 25, 41, 1)" stroke-width="1.5"></path>
        <path d="M546.3 398.89L546.3 398.89" stroke="rgba(20, 25, 41, 1)" stroke-width="1.5"></path>
        <path d="M546.3 398.89L493.13 488.99" stroke="rgba(20, 25, 41, 1)" stroke-width="1.5"></path>
        <path d="M546.3 398.89L676.18 405.15" stroke="rgba(20, 25, 41, 1)" stroke-width="1.5"></path>
        <path d="M546.3 398.89L661.84 499.25" stroke="rgba(20, 25, 41, 1)" stroke-width="1.5"></path>
        <path d="M546.3 398.89L693.51 233.99" stroke="rgba(20, 25, 41, 1)" stroke-width="1.5"></path>
        <path d="M546.3 398.89L800.25 347.02" stroke="rgba(20, 25, 41, 1)" stroke-width="1.5"></path>
        <path d="M546.3 398.89L341.59 557.95" stroke="rgba(20, 25, 41, 1)" stroke-width="1.5"></path>
        <path d="M493.13 488.99L493.13 488.99" stroke="rgba(20, 25, 41, 1)" stroke-width="1.5"></path>
        <path d="M493.13 488.99L661.84 499.25" stroke="rgba(20, 25, 41, 1)" stroke-width="1.5"></path>
        <path d="M493.13 488.99L531.48 681.22" stroke="rgba(20, 25, 41, 1)" stroke-width="1.5"></path>
        <path d="M493.13 488.99L676.18 405.15" stroke="rgba(20, 25, 41, 1)" stroke-width="1.5"></path>
        <path d="M531.48 681.22L531.48 681.22" stroke="rgba(20, 25, 41, 1)" stroke-width="1.5"></path>
        <path d="M531.48 681.22L692.53 685.62" stroke="rgba(20, 25, 41, 1)" stroke-width="1.5"></path>
        <path d="M531.48 681.22L365.45 686.9" stroke="rgba(20, 25, 41, 1)" stroke-width="1.5"></path>
        <path d="M693.51 233.99L693.51 233.99" stroke="rgba(20, 25, 41, 1)" stroke-width="1.5"></path>
        <path d="M693.51 233.99L798.84 212.05" stroke="rgba(20, 25, 41, 1)" stroke-width="1.5"></path>
        <path d="M693.51 233.99L800.25 347.02" stroke="rgba(20, 25, 41, 1)" stroke-width="1.5"></path>
        <path d="M676.18 405.15L676.18 405.15" stroke="rgba(20, 25, 41, 1)" stroke-width="1.5"></path>
        <path d="M676.18 405.15L661.84 499.25" stroke="rgba(20, 25, 41, 1)" stroke-width="1.5"></path>
        <path d="M661.84 499.25L661.84 499.25" stroke="rgba(20, 25, 41, 1)" stroke-width="1.5"></path>
        <path d="M692.53 685.62L692.53 685.62" stroke="rgba(20, 25, 41, 1)" stroke-width="1.5"></path>
        <path d="M692.53 685.62L808.01 681.59" stroke="rgba(20, 25, 41, 1)" stroke-width="1.5"></path>
        <path d="M692.53 685.62L661.84 499.25" stroke="rgba(20, 25, 41, 1)" stroke-width="1.5"></path>
        <path d="M828.73 -91.33L828.73 -91.33" stroke="rgba(20, 25, 41, 1)" stroke-width="1.5"></path>
        <path d="M828.73 -91.33L856.95 68.28" stroke="rgba(20, 25, 41, 1)" stroke-width="1.5"></path>
        <path d="M828.73 -91.33L996.76 -86.66" stroke="rgba(20, 25, 41, 1)" stroke-width="1.5"></path>
        <path d="M828.73 -91.33L953.93 59.31" stroke="rgba(20, 25, 41, 1)" stroke-width="1.5"></path>
        <path d="M856.95 68.28L856.95 68.28" stroke="rgba(20, 25, 41, 1)" stroke-width="1.5"></path>
        <path d="M856.95 68.28L953.93 59.31" stroke="rgba(20, 25, 41, 1)" stroke-width="1.5"></path>
        <path d="M856.95 68.28L798.84 212.05" stroke="rgba(20, 25, 41, 1)" stroke-width="1.5"></path>
        <path d="M856.95 68.28L961.7 205.78" stroke="rgba(20, 25, 41, 1)" stroke-width="1.5"></path>
        <path d="M798.84 212.05L798.84 212.05" stroke="rgba(20, 25, 41, 1)" stroke-width="1.5"></path>
        <path d="M798.84 212.05L800.25 347.02" stroke="rgba(20, 25, 41, 1)" stroke-width="1.5"></path>
        <path d="M800.25 347.02L800.25 347.02" stroke="rgba(20, 25, 41, 1)" stroke-width="1.5"></path>
        <path d="M800.25 347.02L676.18 405.15" stroke="rgba(20, 25, 41, 1)" stroke-width="1.5"></path>
        <path d="M858.15 558.64L858.15 558.64" stroke="rgba(20, 25, 41, 1)" stroke-width="1.5"></path>
        <path d="M858.15 558.64L964.22 524.05" stroke="rgba(20, 25, 41, 1)" stroke-width="1.5"></path>
        <path d="M858.15 558.64L808.01 681.59" stroke="rgba(20, 25, 41, 1)" stroke-width="1.5"></path>
        <path d="M808.01 681.59L808.01 681.59" stroke="rgba(20, 25, 41, 1)" stroke-width="1.5"></path>
        <path d="M996.76 -86.66L996.76 -86.66" stroke="rgba(20, 25, 41, 1)" stroke-width="1.5"></path>
        <path d="M996.76 -86.66L1144.11 -102.78" stroke="rgba(20, 25, 41, 1)" stroke-width="1.5"></path>
        <path d="M996.76 -86.66L953.93 59.31" stroke="rgba(20, 25, 41, 1)" stroke-width="1.5"></path>
        <path d="M996.76 -86.66L856.95 68.28" stroke="rgba(20, 25, 41, 1)" stroke-width="1.5"></path>
        <path d="M996.76 -86.66L1161.59 105.29" stroke="rgba(20, 25, 41, 1)" stroke-width="1.5"></path>
        <path d="M996.76 -86.66L1262.37 -45.25" stroke="rgba(20, 25, 41, 1)" stroke-width="1.5"></path>
        <path d="M953.93 59.31L953.93 59.31" stroke="rgba(20, 25, 41, 1)" stroke-width="1.5"></path>
        <path d="M953.93 59.31L961.7 205.78" stroke="rgba(20, 25, 41, 1)" stroke-width="1.5"></path>
        <path d="M961.7 205.78L961.7 205.78" stroke="rgba(20, 25, 41, 1)" stroke-width="1.5"></path>
        <path d="M961.7 205.78L798.84 212.05" stroke="rgba(20, 25, 41, 1)" stroke-width="1.5"></path>
        <path d="M961.7 205.78L1128.44 250.12" stroke="rgba(20, 25, 41, 1)" stroke-width="1.5"></path>
        <path d="M961.7 205.78L800.25 347.02" stroke="rgba(20, 25, 41, 1)" stroke-width="1.5"></path>
        <path d="M964.22 524.05L964.22 524.05" stroke="rgba(20, 25, 41, 1)" stroke-width="1.5"></path>
        <path d="M964.22 524.05L957.01 680.3" stroke="rgba(20, 25, 41, 1)" stroke-width="1.5"></path>
        <path d="M964.22 524.05L1142.38 489.85" stroke="rgba(20, 25, 41, 1)" stroke-width="1.5"></path>
        <path d="M957.01 680.3L957.01 680.3" stroke="rgba(20, 25, 41, 1)" stroke-width="1.5"></path>
        <path d="M957.01 680.3L808.01 681.59" stroke="rgba(20, 25, 41, 1)" stroke-width="1.5"></path>
        <path d="M957.01 680.3L858.15 558.64" stroke="rgba(20, 25, 41, 1)" stroke-width="1.5"></path>
        <path d="M1144.11 -102.78L1144.11 -102.78" stroke="rgba(20, 25, 41, 1)" stroke-width="1.5"></path>
        <path d="M1144.11 -102.78L1262.37 -45.25" stroke="rgba(20, 25, 41, 1)" stroke-width="1.5"></path>
        <path d="M1144.11 -102.78L1161.59 105.29" stroke="rgba(20, 25, 41, 1)" stroke-width="1.5"></path>
        <path d="M1144.11 -102.78L1296.37 78.43" stroke="rgba(20, 25, 41, 1)" stroke-width="1.5"></path>
        <path d="M1161.59 105.29L1161.59 105.29" stroke="rgba(20, 25, 41, 1)" stroke-width="1.5"></path>
        <path d="M1161.59 105.29L1296.37 78.43" stroke="rgba(20, 25, 41, 1)" stroke-width="1.5"></path>
        <path d="M1161.59 105.29L1128.44 250.12" stroke="rgba(20, 25, 41, 1)" stroke-width="1.5"></path>
        <path d="M1161.59 105.29L1262.37 -45.25" stroke="rgba(20, 25, 41, 1)" stroke-width="1.5"></path>
        <path d="M1161.59 105.29L1296.79 231.39" stroke="rgba(20, 25, 41, 1)" stroke-width="1.5"></path>
        <path d="M1128.44 250.12L1128.44 250.12" stroke="rgba(20, 25, 41, 1)" stroke-width="1.5"></path>
        <path d="M1128.44 250.12L1131.04 341.74" stroke="rgba(20, 25, 41, 1)" stroke-width="1.5"></path>
        <path d="M1128.44 250.12L1296.79 231.39" stroke="rgba(20, 25, 41, 1)" stroke-width="1.5"></path>
        <path d="M1131.04 341.74L1131.04 341.74" stroke="rgba(20, 25, 41, 1)" stroke-width="1.5"></path>
        <path d="M1131.04 341.74L1142.38 489.85" stroke="rgba(20, 25, 41, 1)" stroke-width="1.5"></path>
        <path d="M1131.04 341.74L1290.08 397.63" stroke="rgba(20, 25, 41, 1)" stroke-width="1.5"></path>
        <path d="M1131.04 341.74L1296.79 231.39" stroke="rgba(20, 25, 41, 1)" stroke-width="1.5"></path>
        <path d="M1131.04 341.74L961.7 205.78" stroke="rgba(20, 25, 41, 1)" stroke-width="1.5"></path>
        <path d="M1142.38 489.85L1142.38 489.85" stroke="rgba(20, 25, 41, 1)" stroke-width="1.5"></path>
        <path d="M1142.38 489.85L1254.77 534.33" stroke="rgba(20, 25, 41, 1)" stroke-width="1.5"></path>
        <path d="M1142.38 489.85L1128.7 645.82" stroke="rgba(20, 25, 41, 1)" stroke-width="1.5"></path>
        <path d="M1142.38 489.85L1290.08 397.63" stroke="rgba(20, 25, 41, 1)" stroke-width="1.5"></path>
        <path d="M1128.7 645.82L1128.7 645.82" stroke="rgba(20, 25, 41, 1)" stroke-width="1.5"></path>
        <path d="M1128.7 645.82L1254.57 683.32" stroke="rgba(20, 25, 41, 1)" stroke-width="1.5"></path>
        <path d="M1128.7 645.82L1254.77 534.33" stroke="rgba(20, 25, 41, 1)" stroke-width="1.5"></path>
        <path d="M1128.7 645.82L957.01 680.3" stroke="rgba(20, 25, 41, 1)" stroke-width="1.5"></path>
        <path d="M1262.37 -45.25L1262.37 -45.25" stroke="rgba(20, 25, 41, 1)" stroke-width="1.5"></path>
        <path d="M1262.37 -45.25L1296.37 78.43" stroke="rgba(20, 25, 41, 1)" stroke-width="1.5"></path>
        <path d="M1262.37 -45.25L1296.79 231.39" stroke="rgba(20, 25, 41, 1)" stroke-width="1.5"></path>
        <path d="M1262.37 -45.25L1128.44 250.12" stroke="rgba(20, 25, 41, 1)" stroke-width="1.5"></path>
        <path d="M1296.37 78.43L1296.37 78.43" stroke="rgba(20, 25, 41, 1)" stroke-width="1.5"></path>
        <path d="M1296.37 78.43L1296.79 231.39" stroke="rgba(20, 25, 41, 1)" stroke-width="1.5"></path>
        <path d="M1296.37 78.43L1128.44 250.12" stroke="rgba(20, 25, 41, 1)" stroke-width="1.5"></path>
        <path d="M1296.37 78.43L1131.04 341.74" stroke="rgba(20, 25, 41, 1)" stroke-width="1.5"></path>
        <path d="M1296.79 231.39L1296.79 231.39" stroke="rgba(20, 25, 41, 1)" stroke-width="1.5"></path>
        <path d="M1296.79 231.39L1290.08 397.63" stroke="rgba(20, 25, 41, 1)" stroke-width="1.5"></path>
        <path d="M1290.08 397.63L1290.08 397.63" stroke="rgba(20, 25, 41, 1)" stroke-width="1.5"></path>
        <path d="M1290.08 397.63L1254.77 534.33" stroke="rgba(20, 25, 41, 1)" stroke-width="1.5"></path>
        <path d="M1290.08 397.63L1128.44 250.12" stroke="rgba(20, 25, 41, 1)" stroke-width="1.5"></path>
        <path d="M1290.08 397.63L1254.57 683.32" stroke="rgba(20, 25, 41, 1)" stroke-width="1.5"></path>
        <path d="M1254.77 534.33L1254.77 534.33" stroke="rgba(20, 25, 41, 1)" stroke-width="1.5"></path>
        <path d="M1254.77 534.33L1254.57 683.32" stroke="rgba(20, 25, 41, 1)" stroke-width="1.5"></path>
        <path d="M1254.57 683.32L1254.57 683.32" stroke="rgba(20, 25, 41, 1)" stroke-width="1.5"></path>
        <path d="M1254.57 683.32L1142.38 489.85" stroke="rgba(20, 25, 41, 1)" stroke-width="1.5"></path>
        <path d="M1254.57 683.32L957.01 680.3" stroke="rgba(20, 25, 41, 1)" stroke-width="1.5"></path>
        <path d="M1254.57 683.32L964.22 524.05" stroke="rgba(20, 25, 41, 1)" stroke-width="1.5"></path>
        <circle r="5" cx="-92.98" cy="399.51" fill="rgba(20, 25, 41, 1)"></circle>
        <circle r="5" cx="-97.83" cy="519.51" fill="rgba(20, 25, 41, 1)"></circle>
        <circle r="5" cx="-65.37" cy="678.42" fill="rgba(20, 25, 41, 1)"></circle>
        <circle r="5" cx="63.63" cy="692.66" fill="rgba(20, 25, 41, 1)"></circle>
        <circle r="5" cx="207.1" cy="353.41" fill="rgba(20, 25, 41, 1)"></circle>
        <circle r="5" cx="255.1" cy="543.92" fill="rgba(20, 25, 41, 1)"></circle>
        <circle r="5" cx="208.61" cy="709.04" fill="rgba(20, 25, 41, 1)"></circle>
        <circle r="5" cx="341.59" cy="557.95" fill="rgba(20, 25, 41, 1)"></circle>
        <circle r="5" cx="365.45" cy="686.9" fill="rgba(20, 25, 41, 1)"></circle>
        <circle r="5" cx="546.3" cy="398.89" fill="rgba(20, 25, 41, 1)"></circle>
        <circle r="5" cx="493.13" cy="488.99" fill="rgba(20, 25, 41, 1)"></circle>
        <circle r="5" cx="531.48" cy="681.22" fill="rgba(20, 25, 41, 1)"></circle>
        <circle r="5" cx="693.51" cy="233.99" fill="rgba(20, 25, 41, 1)"></circle>
        <circle r="5" cx="676.18" cy="405.15" fill="rgba(20, 25, 41, 1)"></circle>
        <circle r="5" cx="661.84" cy="499.25" fill="rgba(20, 25, 41, 1)"></circle>
        <circle r="5" cx="692.53" cy="685.62" fill="rgba(20, 25, 41, 1)"></circle>
        <circle r="5" cx="828.73" cy="-91.33" fill="rgba(20, 25, 41, 1)"></circle>
        <circle r="5" cx="856.95" cy="68.28" fill="rgba(20, 25, 41, 1)"></circle>
        <circle r="5" cx="798.84" cy="212.05" fill="rgba(20, 25, 41, 1)"></circle>
        <circle r="5" cx="800.25" cy="347.02" fill="rgba(20, 25, 41, 1)"></circle>
        <circle r="5" cx="858.15" cy="558.64" fill="rgba(20, 25, 41, 1)"></circle>
        <circle r="5" cx="808.01" cy="681.59" fill="rgba(20, 25, 41, 1)"></circle>
        <circle r="5" cx="996.76" cy="-86.66" fill="rgba(20, 25, 41, 1)"></circle>
        <circle r="5" cx="953.93" cy="59.31" fill="rgba(20, 25, 41, 1)"></circle>
        <circle r="5" cx="961.7" cy="205.78" fill="rgba(20, 25, 41, 1)"></circle>
        <circle r="5" cx="964.22" cy="524.05" fill="rgba(20, 25, 41, 1)"></circle>
        <circle r="5" cx="957.01" cy="680.3" fill="rgba(20, 25, 41, 1)"></circle>
        <circle r="5" cx="1144.11" cy="-102.78" fill="rgba(20, 25, 41, 1)"></circle>
        <circle r="5" cx="1161.59" cy="105.29" fill="rgba(20, 25, 41, 1)"></circle>
        <circle r="5" cx="1128.44" cy="250.12" fill="rgba(20, 25, 41, 1)"></circle>
        <circle r="5" cx="1131.04" cy="341.74" fill="rgba(20, 25, 41, 1)"></circle>
        <circle r="5" cx="1142.38" cy="489.85" fill="rgba(20, 25, 41, 1)"></circle>
        <circle r="5" cx="1128.7" cy="645.82" fill="rgba(20, 25, 41, 1)"></circle>
        <circle r="5" cx="1262.37" cy="-45.25" fill="rgba(20, 25, 41, 1)"></circle>
        <circle r="5" cx="1296.37" cy="78.43" fill="rgba(20, 25, 41, 1)"></circle>
        <circle r="5" cx="1296.79" cy="231.39" fill="rgba(20, 25, 41, 1)"></circle>
        <circle r="5" cx="1290.08" cy="397.63" fill="rgba(20, 25, 41, 1)"></circle>
        <circle r="5" cx="1254.77" cy="534.33" fill="rgba(20, 25, 41, 1)"></circle>
        <circle r="5" cx="1254.57" cy="683.32" fill="rgba(20, 25, 41, 1)"></circle>
        <path d="M60 705.89L60 705.89" stroke="hsl(227.10000000000002, 34.1%, 20.9%)" stroke-width="1.5"></path>
        <path d="M60 705.89L42.07 544.01" stroke="hsl(227.10000000000002, 34.1%, 20.9%)" stroke-width="1.5"></path>
        <path d="M60 705.89L-100.19 657.75" stroke="hsl(227.10000000000002, 34.1%, 20.9%)" stroke-width="1.5"></path>
        <path d="M60 705.89L254.29 706.81" stroke="hsl(227.10000000000002, 34.1%, 20.9%)" stroke-width="1.5"></path>
        <path d="M60 705.89L-66.06 539.76" stroke="hsl(227.10000000000002, 34.1%, 20.9%)" stroke-width="1.5"></path>
        <path d="M60 705.89L218.88 560.33" stroke="hsl(227.10000000000002, 34.1%, 20.9%)" stroke-width="1.5"></path>
        <path d="M491.74 661.16L491.74 661.16" stroke="hsl(227.10000000000002, 34.1%, 20.9%)" stroke-width="1.5"></path>
        <path d="M491.74 661.16L394.68 684.71" stroke="hsl(227.10000000000002, 34.1%, 20.9%)" stroke-width="1.5"></path>
        <path d="M491.74 661.16L508.55 554.04" stroke="hsl(227.10000000000002, 34.1%, 20.9%)" stroke-width="1.5"></path>
        <path d="M491.74 661.16L669.25 665.89" stroke="hsl(227.10000000000002, 34.1%, 20.9%)" stroke-width="1.5"></path>
        <path d="M669.25 665.89L669.25 665.89" stroke="hsl(227.10000000000002, 34.1%, 20.9%)" stroke-width="1.5"></path>
        <path d="M669.25 665.89L675.93 525.12" stroke="hsl(227.10000000000002, 34.1%, 20.9%)" stroke-width="1.5"></path>
        <path d="M669.25 665.89L794.42 550.22" stroke="hsl(227.10000000000002, 34.1%, 20.9%)" stroke-width="1.5"></path>
        <path d="M669.25 665.89L838.39 690.59" stroke="hsl(227.10000000000002, 34.1%, 20.9%)" stroke-width="1.5"></path>
        <path d="M974.42 191.09L974.42 191.09" stroke="hsl(227.10000000000002, 34.1%, 20.9%)" stroke-width="1.5"></path>
        <path d="M974.42 191.09L979.84 49.19" stroke="hsl(227.10000000000002, 34.1%, 20.9%)" stroke-width="1.5"></path>
        <path d="M974.42 191.09L827.44 241.96" stroke="hsl(227.10000000000002, 34.1%, 20.9%)" stroke-width="1.5"></path>
        <path d="M1146.16 533.68L1146.16 533.68" stroke="hsl(227.10000000000002, 34.1%, 20.9%)" stroke-width="1.5"></path>
        <path d="M1146.16 533.68L1264.36 541.61" stroke="hsl(227.10000000000002, 34.1%, 20.9%)" stroke-width="1.5"></path>
        <path d="M1146.16 533.68L1149.01 363.46" stroke="hsl(227.10000000000002, 34.1%, 20.9%)" stroke-width="1.5"></path>
        <path d="M1146.16 533.68L972.5 542.45" stroke="hsl(227.10000000000002, 34.1%, 20.9%)" stroke-width="1.5"></path>
        <path d="M1146.16 533.68L1108.85 712.06" stroke="hsl(227.10000000000002, 34.1%, 20.9%)" stroke-width="1.5"></path>
        <path d="M1146.16 533.68L1302.48 706.25" stroke="hsl(227.10000000000002, 34.1%, 20.9%)" stroke-width="1.5"></path>
        <path d="M1255.87 95.08L1255.87 95.08" stroke="hsl(227.10000000000002, 34.1%, 20.9%)" stroke-width="1.5"></path>
        <path d="M1255.87 95.08L1128.29 96" stroke="hsl(227.10000000000002, 34.1%, 20.9%)" stroke-width="1.5"></path>
        <path d="M1255.87 95.08L1299.59 216.29" stroke="hsl(227.10000000000002, 34.1%, 20.9%)" stroke-width="1.5"></path>
        <path d="M-66.06 539.76L-66.06 539.76" stroke="hsl(227.10000000000002, 34.1%, 20.9%)" stroke-width="1.5"></path>
        <path d="M-66.06 539.76L42.07 544.01" stroke="hsl(227.10000000000002, 34.1%, 20.9%)" stroke-width="1.5"></path>
        <path d="M-66.06 539.76L-100.19 657.75" stroke="hsl(227.10000000000002, 34.1%, 20.9%)" stroke-width="1.5"></path>
        <path d="M-100.19 657.75L-100.19 657.75" stroke="hsl(227.10000000000002, 34.1%, 20.9%)" stroke-width="1.5"></path>
        <path d="M-100.19 657.75L42.07 544.01" stroke="hsl(227.10000000000002, 34.1%, 20.9%)" stroke-width="1.5"></path>
        <path d="M-100.19 657.75L218.88 560.33" stroke="hsl(227.10000000000002, 34.1%, 20.9%)" stroke-width="1.5"></path>
        <path d="M-100.19 657.75L254.29 706.81" stroke="hsl(227.10000000000002, 34.1%, 20.9%)" stroke-width="1.5"></path>
        <path d="M-100.19 657.75L362.81 501.38" stroke="hsl(227.10000000000002, 34.1%, 20.9%)" stroke-width="1.5"></path>
        <path d="M42.07 544.01L42.07 544.01" stroke="hsl(227.10000000000002, 34.1%, 20.9%)" stroke-width="1.5"></path>
        <path d="M42.07 544.01L218.88 560.33" stroke="hsl(227.10000000000002, 34.1%, 20.9%)" stroke-width="1.5"></path>
        <path d="M218.88 560.33L218.88 560.33" stroke="hsl(227.10000000000002, 34.1%, 20.9%)" stroke-width="1.5"></path>
        <path d="M218.88 560.33L254.29 706.81" stroke="hsl(227.10000000000002, 34.1%, 20.9%)" stroke-width="1.5"></path>
        <path d="M218.88 560.33L362.81 501.38" stroke="hsl(227.10000000000002, 34.1%, 20.9%)" stroke-width="1.5"></path>
        <path d="M254.29 706.81L254.29 706.81" stroke="hsl(227.10000000000002, 34.1%, 20.9%)" stroke-width="1.5"></path>
        <path d="M254.29 706.81L394.68 684.71" stroke="hsl(227.10000000000002, 34.1%, 20.9%)" stroke-width="1.5"></path>
        <path d="M254.29 706.81L362.81 501.38" stroke="hsl(227.10000000000002, 34.1%, 20.9%)" stroke-width="1.5"></path>
        <path d="M362.81 501.38L362.81 501.38" stroke="hsl(227.10000000000002, 34.1%, 20.9%)" stroke-width="1.5"></path>
        <path d="M362.81 501.38L508.55 554.04" stroke="hsl(227.10000000000002, 34.1%, 20.9%)" stroke-width="1.5"></path>
        <path d="M394.68 684.71L394.68 684.71" stroke="hsl(227.10000000000002, 34.1%, 20.9%)" stroke-width="1.5"></path>
        <path d="M394.68 684.71L508.55 554.04" stroke="hsl(227.10000000000002, 34.1%, 20.9%)" stroke-width="1.5"></path>
        <path d="M508.55 554.04L508.55 554.04" stroke="hsl(227.10000000000002, 34.1%, 20.9%)" stroke-width="1.5"></path>
        <path d="M508.55 554.04L675.93 525.12" stroke="hsl(227.10000000000002, 34.1%, 20.9%)" stroke-width="1.5"></path>
        <path d="M674.74 373.77L674.74 373.77" stroke="hsl(227.10000000000002, 34.1%, 20.9%)" stroke-width="1.5"></path>
        <path d="M674.74 373.77L804.63 376.29" stroke="hsl(227.10000000000002, 34.1%, 20.9%)" stroke-width="1.5"></path>
        <path d="M674.74 373.77L675.93 525.12" stroke="hsl(227.10000000000002, 34.1%, 20.9%)" stroke-width="1.5"></path>
        <path d="M674.74 373.77L827.44 241.96" stroke="hsl(227.10000000000002, 34.1%, 20.9%)" stroke-width="1.5"></path>
        <path d="M674.74 373.77L794.42 550.22" stroke="hsl(227.10000000000002, 34.1%, 20.9%)" stroke-width="1.5"></path>
        <path d="M674.74 373.77L508.55 554.04" stroke="hsl(227.10000000000002, 34.1%, 20.9%)" stroke-width="1.5"></path>
        <path d="M674.74 373.77L962.31 389.8" stroke="hsl(227.10000000000002, 34.1%, 20.9%)" stroke-width="1.5"></path>
        <path d="M675.93 525.12L675.93 525.12" stroke="hsl(227.10000000000002, 34.1%, 20.9%)" stroke-width="1.5"></path>
        <path d="M675.93 525.12L794.42 550.22" stroke="hsl(227.10000000000002, 34.1%, 20.9%)" stroke-width="1.5"></path>
        <path d="M827.44 241.96L827.44 241.96" stroke="hsl(227.10000000000002, 34.1%, 20.9%)" stroke-width="1.5"></path>
        <path d="M827.44 241.96L804.63 376.29" stroke="hsl(227.10000000000002, 34.1%, 20.9%)" stroke-width="1.5"></path>
        <path d="M827.44 241.96L962.31 389.8" stroke="hsl(227.10000000000002, 34.1%, 20.9%)" stroke-width="1.5"></path>
        <path d="M827.44 241.96L979.84 49.19" stroke="hsl(227.10000000000002, 34.1%, 20.9%)" stroke-width="1.5"></path>
        <path d="M804.63 376.29L804.63 376.29" stroke="hsl(227.10000000000002, 34.1%, 20.9%)" stroke-width="1.5"></path>
        <path d="M804.63 376.29L962.31 389.8" stroke="hsl(227.10000000000002, 34.1%, 20.9%)" stroke-width="1.5"></path>
        <path d="M794.42 550.22L794.42 550.22" stroke="hsl(227.10000000000002, 34.1%, 20.9%)" stroke-width="1.5"></path>
        <path d="M794.42 550.22L838.39 690.59" stroke="hsl(227.10000000000002, 34.1%, 20.9%)" stroke-width="1.5"></path>
        <path d="M794.42 550.22L804.63 376.29" stroke="hsl(227.10000000000002, 34.1%, 20.9%)" stroke-width="1.5"></path>
        <path d="M794.42 550.22L972.5 542.45" stroke="hsl(227.10000000000002, 34.1%, 20.9%)" stroke-width="1.5"></path>
        <path d="M794.42 550.22L942.07 669.38" stroke="hsl(227.10000000000002, 34.1%, 20.9%)" stroke-width="1.5"></path>
        <path d="M838.39 690.59L838.39 690.59" stroke="hsl(227.10000000000002, 34.1%, 20.9%)" stroke-width="1.5"></path>
        <path d="M838.39 690.59L942.07 669.38" stroke="hsl(227.10000000000002, 34.1%, 20.9%)" stroke-width="1.5"></path>
        <path d="M838.39 690.59L972.5 542.45" stroke="hsl(227.10000000000002, 34.1%, 20.9%)" stroke-width="1.5"></path>
        <path d="M838.39 690.59L675.93 525.12" stroke="hsl(227.10000000000002, 34.1%, 20.9%)" stroke-width="1.5"></path>
        <path d="M838.39 690.59L1108.85 712.06" stroke="hsl(227.10000000000002, 34.1%, 20.9%)" stroke-width="1.5"></path>
        <path d="M1004.41 -85.56L1004.41 -85.56" stroke="hsl(227.10000000000002, 34.1%, 20.9%)" stroke-width="1.5"></path>
        <path d="M1004.41 -85.56L979.84 49.19" stroke="hsl(227.10000000000002, 34.1%, 20.9%)" stroke-width="1.5"></path>
        <path d="M1004.41 -85.56L1154.85 -88.45" stroke="hsl(227.10000000000002, 34.1%, 20.9%)" stroke-width="1.5"></path>
        <path d="M979.84 49.19L979.84 49.19" stroke="hsl(227.10000000000002, 34.1%, 20.9%)" stroke-width="1.5"></path>
        <path d="M979.84 49.19L1128.29 96" stroke="hsl(227.10000000000002, 34.1%, 20.9%)" stroke-width="1.5"></path>
        <path d="M979.84 49.19L1141.49 190.23" stroke="hsl(227.10000000000002, 34.1%, 20.9%)" stroke-width="1.5"></path>
        <path d="M979.84 49.19L1154.85 -88.45" stroke="hsl(227.10000000000002, 34.1%, 20.9%)" stroke-width="1.5"></path>
        <path d="M962.31 389.8L962.31 389.8" stroke="hsl(227.10000000000002, 34.1%, 20.9%)" stroke-width="1.5"></path>
        <path d="M962.31 389.8L972.5 542.45" stroke="hsl(227.10000000000002, 34.1%, 20.9%)" stroke-width="1.5"></path>
        <path d="M962.31 389.8L1149.01 363.46" stroke="hsl(227.10000000000002, 34.1%, 20.9%)" stroke-width="1.5"></path>
        <path d="M972.5 542.45L972.5 542.45" stroke="hsl(227.10000000000002, 34.1%, 20.9%)" stroke-width="1.5"></path>
        <path d="M972.5 542.45L942.07 669.38" stroke="hsl(227.10000000000002, 34.1%, 20.9%)" stroke-width="1.5"></path>
        <path d="M942.07 669.38L942.07 669.38" stroke="hsl(227.10000000000002, 34.1%, 20.9%)" stroke-width="1.5"></path>
        <path d="M942.07 669.38L1108.85 712.06" stroke="hsl(227.10000000000002, 34.1%, 20.9%)" stroke-width="1.5"></path>
        <path d="M942.07 669.38L1146.16 533.68" stroke="hsl(227.10000000000002, 34.1%, 20.9%)" stroke-width="1.5"></path>
        <path d="M1154.85 -88.45L1154.85 -88.45" stroke="hsl(227.10000000000002, 34.1%, 20.9%)" stroke-width="1.5"></path>
        <path d="M1154.85 -88.45L1128.29 96" stroke="hsl(227.10000000000002, 34.1%, 20.9%)" stroke-width="1.5"></path>
        <path d="M1154.85 -88.45L1255.87 95.08" stroke="hsl(227.10000000000002, 34.1%, 20.9%)" stroke-width="1.5"></path>
        <path d="M1128.29 96L1128.29 96" stroke="hsl(227.10000000000002, 34.1%, 20.9%)" stroke-width="1.5"></path>
        <path d="M1128.29 96L1141.49 190.23" stroke="hsl(227.10000000000002, 34.1%, 20.9%)" stroke-width="1.5"></path>
        <path d="M1128.29 96L974.42 191.09" stroke="hsl(227.10000000000002, 34.1%, 20.9%)" stroke-width="1.5"></path>
        <path d="M1128.29 96L1299.59 216.29" stroke="hsl(227.10000000000002, 34.1%, 20.9%)" stroke-width="1.5"></path>
        <path d="M1141.49 190.23L1141.49 190.23" stroke="hsl(227.10000000000002, 34.1%, 20.9%)" stroke-width="1.5"></path>
        <path d="M1141.49 190.23L1255.87 95.08" stroke="hsl(227.10000000000002, 34.1%, 20.9%)" stroke-width="1.5"></path>
        <path d="M1141.49 190.23L1299.59 216.29" stroke="hsl(227.10000000000002, 34.1%, 20.9%)" stroke-width="1.5"></path>
        <path d="M1149.01 363.46L1149.01 363.46" stroke="hsl(227.10000000000002, 34.1%, 20.9%)" stroke-width="1.5"></path>
        <path d="M1149.01 363.46L1290.29 339.43" stroke="hsl(227.10000000000002, 34.1%, 20.9%)" stroke-width="1.5"></path>
        <path d="M1149.01 363.46L1141.49 190.23" stroke="hsl(227.10000000000002, 34.1%, 20.9%)" stroke-width="1.5"></path>
        <path d="M1149.01 363.46L1299.59 216.29" stroke="hsl(227.10000000000002, 34.1%, 20.9%)" stroke-width="1.5"></path>
        <path d="M1108.85 712.06L1108.85 712.06" stroke="hsl(227.10000000000002, 34.1%, 20.9%)" stroke-width="1.5"></path>
        <path d="M1108.85 712.06L1302.48 706.25" stroke="hsl(227.10000000000002, 34.1%, 20.9%)" stroke-width="1.5"></path>
        <path d="M1108.85 712.06L972.5 542.45" stroke="hsl(227.10000000000002, 34.1%, 20.9%)" stroke-width="1.5"></path>
        <path d="M1108.85 712.06L1264.36 541.61" stroke="hsl(227.10000000000002, 34.1%, 20.9%)" stroke-width="1.5"></path>
        <path d="M1299.59 216.29L1299.59 216.29" stroke="hsl(227.10000000000002, 34.1%, 20.9%)" stroke-width="1.5"></path>
        <path d="M1299.59 216.29L1290.29 339.43" stroke="hsl(227.10000000000002, 34.1%, 20.9%)" stroke-width="1.5"></path>
        <path d="M1290.29 339.43L1290.29 339.43" stroke="hsl(227.10000000000002, 34.1%, 20.9%)" stroke-width="1.5"></path>
        <path d="M1264.36 541.61L1264.36 541.61" stroke="hsl(227.10000000000002, 34.1%, 20.9%)" stroke-width="1.5"></path>
        <path d="M1264.36 541.61L1302.48 706.25" stroke="hsl(227.10000000000002, 34.1%, 20.9%)" stroke-width="1.5"></path>
        <path d="M1264.36 541.61L1290.29 339.43" stroke="hsl(227.10000000000002, 34.1%, 20.9%)" stroke-width="1.5"></path>
        <path d="M1264.36 541.61L1149.01 363.46" stroke="hsl(227.10000000000002, 34.1%, 20.9%)" stroke-width="1.5"></path>
        <path d="M1264.36 541.61L972.5 542.45" stroke="hsl(227.10000000000002, 34.1%, 20.9%)" stroke-width="1.5"></path>
        <path d="M1302.48 706.25L1302.48 706.25" stroke="hsl(227.10000000000002, 34.1%, 20.9%)" stroke-width="1.5"></path>
        <path d="M1302.48 706.25L942.07 669.38" stroke="hsl(227.10000000000002, 34.1%, 20.9%)" stroke-width="1.5"></path>
        <path d="M1302.48 706.25L1290.29 339.43" stroke="hsl(227.10000000000002, 34.1%, 20.9%)" stroke-width="1.5"></path>
        <circle r="25" cx="60" cy="705.89" fill="url(&quot;#SvgjsRadialGradient1019&quot;)"></circle>
        <circle r="25" cx="491.74" cy="661.16" fill="url(&quot;#SvgjsRadialGradient1019&quot;)"></circle>
        <circle r="25" cx="669.25" cy="665.89" fill="url(&quot;#SvgjsRadialGradient1019&quot;)"></circle>
        <circle r="25" cx="974.42" cy="191.09" fill="url(&quot;#SvgjsRadialGradient1019&quot;)"></circle>
        <circle r="25" cx="1146.16" cy="533.68" fill="url(&quot;#SvgjsRadialGradient1019&quot;)"></circle>
        <circle r="25" cx="1255.87" cy="95.08" fill="url(&quot;#SvgjsRadialGradient1019&quot;)"></circle>
        <circle r="5" cx="-66.06" cy="539.76" fill="#8d909b"></circle>
        <circle r="5" cx="-100.19" cy="657.75" fill="#8d909b"></circle>
        <circle r="5" cx="42.07" cy="544.01" fill="#8d909b"></circle>
        <circle r="5" cx="218.88" cy="560.33" fill="#8d909b"></circle>
        <circle r="5" cx="254.29" cy="706.81" fill="#8d909b"></circle>
        <circle r="5" cx="362.81" cy="501.38" fill="#8d909b"></circle>
        <circle r="5" cx="394.68" cy="684.71" fill="#8d909b"></circle>
        <circle r="5" cx="508.55" cy="554.04" fill="#8d909b"></circle>
        <circle r="5" cx="674.74" cy="373.77" fill="#8d909b"></circle>
        <circle r="5" cx="675.93" cy="525.12" fill="#8d909b"></circle>
        <circle r="5" cx="827.44" cy="241.96" fill="#8d909b"></circle>
        <circle r="5" cx="804.63" cy="376.29" fill="#8d909b"></circle>
        <circle r="5" cx="794.42" cy="550.22" fill="#8d909b"></circle>
        <circle r="5" cx="838.39" cy="690.59" fill="#8d909b"></circle>
        <circle r="5" cx="1004.41" cy="-85.56" fill="#8d909b"></circle>
        <circle r="5" cx="979.84" cy="49.19" fill="#8d909b"></circle>
        <circle r="5" cx="962.31" cy="389.8" fill="#8d909b"></circle>
        <circle r="5" cx="972.5" cy="542.45" fill="#8d909b"></circle>
        <circle r="5" cx="942.07" cy="669.38" fill="#8d909b"></circle>
        <circle r="5" cx="1154.85" cy="-88.45" fill="#8d909b"></circle>
        <circle r="5" cx="1128.29" cy="96" fill="#8d909b"></circle>
        <circle r="5" cx="1141.49" cy="190.23" fill="#8d909b"></circle>
        <circle r="5" cx="1149.01" cy="363.46" fill="#8d909b"></circle>
        <circle r="5" cx="1108.85" cy="712.06" fill="#8d909b"></circle>
        <circle r="5" cx="1299.59" cy="216.29" fill="#8d909b"></circle>
        <circle r="5" cx="1290.29" cy="339.43" fill="#8d909b"></circle>
        <circle r="5" cx="1264.36" cy="541.61" fill="#8d909b"></circle>
        <circle r="5" cx="1302.48" cy="706.25" fill="#8d909b"></circle>
    </g>
    <defs>
        <mask id="SvgjsMask1018">
            <rect width="1200" height="560" fill="#ffffff"></rect>
        </mask>
        <radialGradient id="SvgjsRadialGradient1019">
            <stop stop-color="#ffffff" offset="0.1"></stop>
            <stop stop-color="rgba(27, 33, 55, 1)" offset="0.2"></stop>
            <stop stop-color="rgba(27, 33, 55, 0)" offset="1"></stop>
        </radialGradient>
    </defs>
</svg>